<?xml version="1.0" encoding="UTF-8" standalone="no"?>
<!-- Created with Inkscape (http://www.inkscape.org/) -->

<svg
   xmlns:dc="http://purl.org/dc/elements/1.1/"
   xmlns:cc="http://creativecommons.org/ns#"
   xmlns:rdf="http://www.w3.org/1999/02/22-rdf-syntax-ns#"
   xmlns:svg="http://www.w3.org/2000/svg"
   xmlns="http://www.w3.org/2000/svg"
   xmlns:xlink="http://www.w3.org/1999/xlink"
   xmlns:sodipodi="http://sodipodi.sourceforge.net/DTD/sodipodi-0.dtd"
   xmlns:inkscape="http://www.inkscape.org/namespaces/inkscape"
   width="750"
   height="257.62579"
   id="svg4472"
   version="1.1"
   inkscape:version="0.48.2 r9819"
   sodipodi:docname="New document 7">
  <defs
     id="defs4474">
    <linearGradient
       id="linearGradient4561">
      <stop
         style="stop-color:#de5644;stop-opacity:1"
         offset="0"
         id="stop4563" />
      <stop
         id="stop4569"
         offset="0.5"
         style="stop-color:#da4531;stop-opacity:1" />
      <stop
         style="stop-color:#ce3a28;stop-opacity:1"
         offset="1"
         id="stop4565" />
    </linearGradient>
    <linearGradient
       id="linearGradient4551">
      <stop
         style="stop-color:#0aa561;stop-opacity:1"
         offset="0"
         id="stop4553" />
      <stop
         id="stop4559"
         offset="0.5"
         style="stop-color:#009b58;stop-opacity:1" />
      <stop
         style="stop-color:#00914b;stop-opacity:1"
         offset="1"
         id="stop4555" />
    </linearGradient>
    <linearGradient
       id="linearGradient4535">
      <stop
         style="stop-color:#1a6fef;stop-opacity:1"
         offset="0"
         id="stop4537" />
      <stop
         id="stop4547"
         offset="0.25"
         style="stop-color:#1e72ef;stop-opacity:1" />
      <stop
         id="stop4545"
         offset="0.5"
         style="stop-color:#166bec;stop-opacity:1" />
      <stop
         id="stop4543"
         offset="0.75"
         style="stop-color:#1267e9;stop-opacity:1" />
      <stop
         style="stop-color:#1063e5;stop-opacity:0.87450981"
         offset="1"
         id="stop4539" />
    </linearGradient>
    <linearGradient
       id="linearGradient4525">
      <stop
         style="stop-color:#ffc01a;stop-opacity:1"
         offset="0"
         id="stop4527" />
      <stop
         id="stop4533"
         offset="0.5"
         style="stop-color:#ffba03;stop-opacity:1" />
      <stop
         style="stop-color:#ffb300;stop-opacity:1"
         offset="1"
         id="stop4529" />
    </linearGradient>
    <linearGradient
       id="linearGradient4511">
      <stop
         style="stop-color:#de5744;stop-opacity:1"
         offset="0"
         id="stop4513" />
      <stop
         id="stop4523"
         offset="0.5"
         style="stop-color:#db4632;stop-opacity:1" />
      <stop
         style="stop-color:#d13d29;stop-opacity:1"
         offset="1"
         id="stop4515" />
    </linearGradient>
    <linearGradient
       id="linearGradient4501">
      <stop
         style="stop-color:#196eef;stop-opacity:1"
         offset="0"
         id="stop4503" />
      <stop
         id="stop4509"
         offset="0.5"
         style="stop-color:#186dee;stop-opacity:1" />
      <stop
         style="stop-color:#1065e7;stop-opacity:1"
         offset="1"
         id="stop4505" />
    </linearGradient>
    <linearGradient
       inkscape:collect="always"
       xlink:href="#linearGradient4501"
       id="linearGradient4507"
       x1="-4561.0913"
       y1="2932.0034"
       x2="-4561.0913"
       y2="3070.1477"
       gradientUnits="userSpaceOnUse"
       gradientTransform="matrix(1.35086,0,0,1.35086,1626.5564,-1095.5023)" />
    <linearGradient
       inkscape:collect="always"
       xlink:href="#linearGradient4511"
       id="linearGradient4517"
       x1="-4444.6431"
       y1="2978.9692"
       x2="-4444.6431"
       y2="3068.3008"
       gradientUnits="userSpaceOnUse"
       gradientTransform="matrix(1.35086,0,0,1.35086,1626.5564,-1095.5023)" />
    <linearGradient
       inkscape:collect="always"
       xlink:href="#linearGradient4525"
       id="linearGradient4531"
       x1="-4342.5"
       y1="2979.1479"
       x2="-4342.5"
       y2="3068.1067"
       gradientUnits="userSpaceOnUse"
       gradientTransform="matrix(1.35086,0,0,1.35086,1626.5564,-1095.5023)" />
    <linearGradient
       inkscape:collect="always"
       xlink:href="#linearGradient4535"
       id="linearGradient4541"
       x1="-4248.9287"
       y1="2978.9692"
       x2="-4248.9287"
       y2="3122.3982"
       gradientUnits="userSpaceOnUse"
       gradientTransform="matrix(1.35086,0,0,1.35086,1626.5564,-1095.5023)" />
    <linearGradient
       inkscape:collect="always"
       xlink:href="#linearGradient4551"
       id="linearGradient4557"
       x1="-4184.2856"
       y1="2934.5051"
       x2="-4184.2856"
       y2="3065.79"
       gradientUnits="userSpaceOnUse"
       gradientTransform="matrix(1.35086,0,0,1.35086,1626.5564,-1095.5023)" />
    <linearGradient
       inkscape:collect="always"
       xlink:href="#linearGradient4561"
       id="linearGradient4567"
       x1="-4118.3931"
       y1="2978.9692"
       x2="-4118.3931"
       y2="3068.1067"
       gradientUnits="userSpaceOnUse"
       gradientTransform="matrix(1.35086,0,0,1.35086,1626.5564,-1095.5023)" />
  </defs>
  <sodipodi:namedview
     id="base"
     pagecolor="#ffffff"
     bordercolor="#666666"
     borderopacity="1.0"
     inkscape:pageopacity="0.0"
     inkscape:pageshadow="2"
     inkscape:zoom="1.4"
     inkscape:cx="481.11177"
     inkscape:cy="46.041475"
     inkscape:document-units="px"
     inkscape:current-layer="layer1"
     showgrid="false"
     fit-margin-left="0.5"
     fit-margin-top="0.5"
     fit-margin-bottom="0.5"
     fit-margin-right="0.5"
     inkscape:window-width="1920"
     inkscape:window-height="1028"
     inkscape:window-x="-8"
     inkscape:window-y="-8"
     inkscape:window-maximized="1">
    <inkscape:grid
       type="xygrid"
       id="grid4499"
       empspacing="5"
       visible="true"
       enabled="true"
       snapvisiblegridlinesonly="true" />
  </sodipodi:namedview>
  <metadata
     id="metadata4477">
    <rdf:RDF>
      <cc:Work
         rdf:about="">
        <dc:format>image/svg+xml</dc:format>
        <dc:type
           rdf:resource="http://purl.org/dc/dcmitype/StillImage" />
        <dc:title></dc:title>
      </cc:Work>
    </rdf:RDF>
  </metadata>
  <g
     inkscape:label="Layer 1"
     inkscape:groupmode="layer"
     id="layer1"
     transform="translate(4636.4128,-2865.2086)">
    <path
       style="fill:url(#linearGradient4507);fill-opacity:1;stroke:none"
       d="m -4520.0829,2990.412 32.2068,0 0,45.2393 c -10.0509,3.2321 -22.74,4.9969 -35.9291,4.9969 -53.4596,0 -84.8839,-45.7823 -84.8839,-90.4947 0,-43.8473 28.4221,-74.6053 68.065,-74.6053 25.0936,0 39.6873,8.4971 52.748,20.3406 l 0,14.7553 24.492,-24.4922 c -15.4887,-10.4801 -37.9193,-20.4433 -69.9811,-20.4433 -70.3774,0 -102.5476,50.3506 -102.5476,91.7281 0,58.9033 42.9005,94.3796 96.8134,94.3796 26.1388,0 49.3459,-3.9922 76.1648,-11.4463 l 0,-46.7373 c 0,-2.3859 1.0497,-4.0325 2.6214,-5.4676 l 8.4637,-8.4637 -57.4479,0 z"
       id="path4423"
       inkscape:connector-curvature="0"
       sodipodi:nodetypes="cccccccccccccccccc" />
    <path
       inkscape:connector-curvature="0"
       style="fill:url(#linearGradient4517);fill-opacity:1;stroke:none"
       d="m -4375.7938,2928.9345 c -40.5055,0 -65.6072,29.6019 -65.6072,61.0174 0,27.1205 20.2198,59.3181 61.1929,59.3181 39.4066,0 63.5874,-29.6612 63.5874,-61.633 0,-29.783 -23.6288,-58.7025 -59.1731,-58.7025 z m -6.7151,8.6298 c 28.5565,0 41.2836,37.2126 41.2836,63.7536 0,39.4663 -29.6092,40.2468 -33.1476,40.2468 -13.5523,0 -23.0217,-8.1881 -30.1073,-18.9309 -6.2445,-9.9016 -12.3397,-28.2889 -12.3397,-46.2621 0,-17.9001 5.8566,-26.6372 15.0829,-33.0706 7.5438,-4.8155 14.6037,-5.7368 19.2281,-5.7368 z"
       id="path4425" />
    <path
       inkscape:connector-curvature="0"
       style="fill:url(#linearGradient4541);fill-opacity:1;stroke:none"
       d="m -4110.9817,2928.9204 c -35.3805,0 -54.5152,22.404 -54.5152,47.4114 0,19.0445 13.6448,40.5207 41.7823,40.5207 l 7.1153,0 c 0,0 -1.9365,4.7054 -1.9497,9.2642 0,6.7055 2.413,10.476 7.5345,16.2765 -48.4151,2.9534 -67.8848,22.4801 -67.8848,43.4676 0,18.3763 17.6017,36.4736 54.5877,36.4736 43.7919,0 66.4687,-24.3148 66.4687,-48.1696 0,-16.8178 -8.3777,-26.0388 -29.6017,-41.9415 -6.2433,-4.8531 -7.4501,-7.9397 -7.4501,-11.5743 0,-5.2022 3.1093,-8.6415 4.2482,-9.9382 2.0082,-2.1204 5.4888,-4.5417 6.7878,-5.7017 7.1256,-6.0421 17.201,-14.9841 17.201,-32.8178 0,-12.2392 -5.0861,-22.7671 -16.6861,-32.635 l 14.1559,0 10.6358,-10.6359 -52.4296,0 z m -9.7581,7.9628 c 6.4178,0 11.7759,2.274 17.4376,6.975 6.2811,5.6584 16.307,20.866 16.307,39.6921 0,20.3073 -15.7773,25.8684 -24.3167,25.8684 -4.1772,0 -9.1913,-1.1666 -13.4326,-4.0655 -9.4224,-6.109 -18.7671,-22.3678 -18.7671,-41.7192 0,-17.4592 10.4002,-26.7508 22.7718,-26.7508 z m 14.0063,113.2223 c 2.6985,0 4.639,0.2201 4.639,0.2201 0,0 6.3682,4.5514 10.8206,7.9463 10.3572,8.1939 16.8243,14.4501 16.8243,25.6016 0,15.3274 -14.2178,27.3501 -37.2531,27.3501 -25.2813,0 -44.6027,-11.7675 -44.6027,-30.9874 0,-15.9202 13.2351,-29.6245 49.5719,-30.1307 z"
       id="path4429" />
    <path
       style="fill:url(#linearGradient4557);fill-opacity:1;stroke:none"
       d="m -4050.8772,3045.7628 48.5746,0 7.3964,-7.3964 -13.9281,-1.743 c -3.7466,-0.4593 -5.9764,-3.6965 -5.9764,-6.8367 l 0,-146.7057 c 0,-2.8883 1.3385,-4.3706 2.3218,-5.3139 l 8.7632,-8.7633 -41.4194,0 -10.7816,10.7817 16.0995,0 0,151.971 c 0,2.1641 -0.6751,3.627 -2.1428,5.1368 z"
       id="path4433"
       inkscape:connector-curvature="0"
       sodipodi:nodetypes="cccccccccccccc" />
    <path
       inkscape:connector-curvature="0"
       style="fill:url(#linearGradient4567);fill-opacity:1;stroke:none"
       d="m -3936.501,2928.9299 c -27.1182,0 -55.9288,20.6726 -55.9288,57.7803 0,30.651 20.6689,62.5598 59.2922,62.5598 9.6336,0 17.5573,-1.2395 24.9885,-4.6531 7.9661,-3.6671 15.6417,-9.6287 21.2363,-17.1239 -10.5707,5.3292 -19.1883,8.8311 -30.6433,8.8311 -21.7636,0 -42.7384,-15.6966 -50.0844,-44.5559 l 76.8656,-31.0716 c -4.4427,-15.8324 -16.9609,-31.7667 -45.7261,-31.7667 z m -5.0183,8.4916 c 14.5486,0 25.0679,11.9708 25.0679,21.3442 0,3.0334 -1.9031,4.6283 -5.6595,6.1065 l -47.2523,19.1112 c 0,0 -1.2756,-5.9452 -1.2756,-12.3842 0,-26.9672 19.4987,-34.1777 29.1195,-34.1777 z"
       id="path4435" />
    <path
       inkscape:connector-curvature="0"
       style="fill:url(#linearGradient4531);fill-opacity:1;stroke:none"
       d="m -4238.3297,2928.9345 c -40.5055,0 -65.6097,29.6019 -65.6097,61.0174 0,27.1205 20.2198,59.3181 61.1931,59.3181 39.4064,0 63.5872,-29.6612 63.5872,-61.633 0,-29.783 -23.6265,-58.7025 -59.1706,-58.7025 z m -6.7176,8.6298 c 28.5565,0 41.2838,37.2126 41.2838,63.7536 0,39.4663 -29.6071,40.2468 -33.1454,40.2468 -13.5522,0 -23.0239,-8.1881 -30.1097,-18.9309 -6.2445,-9.9016 -12.3396,-28.2889 -12.3396,-46.2621 0,-17.9001 5.8566,-26.6372 15.0829,-33.0706 7.5439,-4.8155 14.6038,-5.7368 19.228,-5.7368 z"
       id="path4439" />
  </g>
</svg>
